<?xml version="1.0" encoding="UTF-8"?>
<svg id="b" data-name="レイヤー 2" xmlns="http://www.w3.org/2000/svg" xmlns:xlink="http://www.w3.org/1999/xlink" viewBox="0 0 522.47 502.28">
  <defs>
    <linearGradient id="d" data-name="名称未設定グラデーション 2" x1="422.2" y1="446.39" x2="90.59" y2="26.28" gradientUnits="userSpaceOnUse">
      <stop offset="0" stop-color="#ff15b1"/>
      <stop offset="1" stop-color="#ff151b"/>
    </linearGradient>
  </defs>
  <g id="c" data-name="レイヤー 1">
    <path d="M243.71,364.15l27.1,53.36c2.64,5.2,8.87,7.13,13.82,4.27l40-23.11c6.48-3.74,14.49.82,14.96,8.51l5.21,85.24c.68,11.08,15.27,13.62,19.38,3.38l87.32-217.6c2.73-6.8-1.95-14.33-9.03-14.54l-42.8-1.24,4.13-9.44,26-60.58,7.65-17.99c.74-1.68,1.49-3.42,2.25-5.18l.11-.25c1.2-2.77,2.72-6.25,4.25-9.7,4.58-.46,8.84-1,12.85-1.65,20.09-3.22,36.25-9.1,49.39-17.99l1.38-.93,1.29-1.08c8.46-7.04,13.5-17.43,13.49-27.78,0-9.07-3.56-17.22-9.99-22.96-6.86-6.12-16.45-8.73-26.3-7.15h0c-4.72.76-10.07,2.75-14.33,5.34l-.94.59c-4.42,2.89-10.39,4.82-19.35,6.26-13.15,2.11-28.72,2.51-43.58,2.63h-.43c-2.22.06-4.43.1-6.63.14-14.85.29-28.88.55-42.74,2.77-8.36,1.34-16.18,3.4-23.31,6.12l-24.69-95.86c-1.36-5.28-6.38-8.59-11.54-7.61L8.3,54.87c-6.72,1.27-10.31,8.96-7.12,15.24l67.91,133.45c-1.36,7.46-2.04,14.96-2.04,22.34.04,35.93,14.77,67.61,25.33,85.7-8.49,5.53-18.67,12.51-30.35,21.23-25.99,19.32-40.29,42.44-40.27,65.1.01,12.94,5.11,24.61,14.35,32.84,8.32,7.42,19.43,11.39,31.37,11.39,2.9,0,5.86-.23,8.83-.71,10.06-1.61,20.19-5.71,30.17-12.23,28.52-18.76,44.42-49.65,61.38-88.11.22-.14.44-.27.66-.4,12.05,15.99,32.34,25.1,56.76,25.1" style="fill: url(#d); stroke-width: 0px;"/>
    <path d="M488.85,97.79c-2.57.41-5.78,1.61-8.16,3.06l-.46.29c-6.54,4.28-14.56,7.01-26.01,8.84-14.25,2.28-30.58,2.71-46.11,2.84h-.2c-2.24.05-4.47.1-6.68.14-14.25.27-27.71.53-40.4,2.56-11.11,1.78-20.86,4.96-28.84,9.22-7.16,3.82-15.14,5.78-23.16,5.13-5.56-.45-11.43-.21-17.26.72-36.25,5.81-61.54,34.92-61.5,70.81,0,6.37.81,12.41,2.4,18.07,1.41,5.03-1.55,10.88-6.94,14.16-9.8,5.96-18.99,12.92-26.82,20.64-.03.03-.07.06-.1.09-.95.72-1.85,1.52-2.69,2.41l-.53.59c-3.92,4.6-7.63,8.69-11.17,12.36-1.87,1.94-4.93-.25-3.88-2.77,13.52-32.17,25.66-62.62,32.68-85.9,1.76-5.68,2.65-11.36,2.65-16.87-.03-26.27-22.06-41.08-53.57-36.04-50.97,8.16-77.6,55.35-77.55,97.75.05,46.76,28.69,85.95,31.76,90.01h0c.5.74.3,1.75-.44,2.2-12.09,7.36-26.32,16.6-43.67,29.55-20.95,15.58-32.96,33.9-32.94,50.27.02,17.41,15.12,28.63,34.39,25.54,7.69-1.23,15.57-4.46,23.48-9.62,24.65-16.22,38.7-43.52,55.96-82.89.75-1.71,2-3.14,3.56-4.09,4.54-2.76,8.84-5.45,13.02-8.21,2.81-1.86,6.54-.67,7.88,2.5,8.41,19.82,31.93,30.11,61.98,25.29,32-5.13,61.04-21.53,90.05-51.11,1.11-1.14,2.91.18,2.27,1.66l-.39.9c-.94,2.01-1.39,4.14-1.39,6.5,0,8.09,7.36,13.25,16.74,11.75,6.28-1.01,11.93-5.07,14.76-10.6l.18-.36,26.11-59.71,25.93-60.41,7.69-18.07c.78-1.77,1.57-3.61,2.38-5.47,1.87-4.31,4.41-10.15,6.69-15.13,1.24-2.71,3.79-4.5,6.66-4.73,6.29-.51,11.93-1.17,17.03-1.98,17.59-2.82,31.5-7.81,42.51-15.25l.67-.45.62-.51c4.34-3.61,6.93-8.68,6.93-13.54,0-8.38-6.94-13.6-16.13-12.12ZM81.15,390.35c-3.02,1.91-5.86,2.88-7.52,3.14-.49.08-.84.1-1.07.1-.07-.26-.13-.67-.14-1.26,0-4.31,4.7-12.83,17.98-22.67,2.57-1.89,5.06-3.69,7.46-5.41,2.12-1.52,4.71,1.1,3.32,3.36-6.39,10.46-12.76,17.92-20.04,22.75ZM143.14,276.17c-1.94,4.58-8.1,4.78-10.34.34-7.07-14.02-14.77-34.33-14.79-56.26-.02-20.56,9.25-56.84,44.12-62.43,3.4-.54,20.37-2.56,20.39,11.38,0,2.56-.46,5.53-1.38,8.81-7.67,25-22.37,61.32-38,98.15ZM390.84,160.77l-7.65,17.97c-7.07,15.94-14.62,33.64-21.93,50.76l-4,9.36-7.74,17.7c-.39.88-1.49,1.16-2.19.52-3.13-2.86-7.91-4.25-13.28-3.39-2.97.48-7.41,2.01-11.76,6.6l-.6.67c-27.66,32.92-54.35,51.04-81.58,55.41-5.47.88-32.74,4.14-32.77-17.71-.02-17.08,20.93-34.99,40.93-45.29,3.83-1.97,8.16-2.38,11.66-.98,7.66,3.07,16.21,3.99,24.96,2.59,16.14-2.59,27.85-12.98,27.84-24.71-.01-13.6-14.2-20.46-35.3-17.08-.03,0-.06,0-.09.01-6.3,1.02-11.71-2.02-12.99-7.35-.74-3.1-1.13-6.38-1.13-9.75,0-5.22,1.34-31.48,28.38-35.81,3.49-.56,6.79-.55,9.51-.25,3.63.4,6.39,2.51,7.81,5.43.29.6.65,1.16,1.03,1.7,4.07,10.56,15.01,17.3,27.13,15.36l.93-.15c9.07-1.45,16.72-9.54,16.71-17.66,0-6.09-3.94-10.55-9.66-11.79l-.32-2.75c2.98-1.55,8.01-3.4,15.49-4.6,7.86-1.26,16.88-1.89,25.6-2.21,5.77-.21,9.78,5.93,7.47,11.44-.79,1.88-1.62,3.86-2.48,5.96Z" style="fill: #fff; stroke-width: 0px;"/>
  </g>
</svg>